<svg width="19" height="20" viewBox="0 0 19 20" fill="white" xmlns="http://www.w3.org/2000/svg">
  <path d="M18.735 2.04471C18.7128 1.67901 18.5575 1.3341 18.2984 1.07503C18.0394 0.815973 17.6945 0.66068 17.3288 0.638457C16.1494 0.568144 13.1353 0.675957 10.6341 3.17627L10.1888 3.62721H4.72033C4.52259 3.62609 4.3266 3.66431 4.14377 3.73963C3.96093 3.81495 3.7949 3.92588 3.65533 4.06596L0.439701 7.28346C0.242496 7.48053 0.104115 7.72866 0.0400901 8C-0.0239351 8.27135 -0.0110716 8.55517 0.0772373 8.81961C0.165546 9.08405 0.325805 9.31864 0.540029 9.49706C0.754253 9.67549 1.01396 9.79068 1.29001 9.82971L4.89658 10.3331L9.04126 14.4778L9.5447 18.0863C9.58342 18.3623 9.69858 18.6221 9.87717 18.8361C10.0558 19.0502 10.2907 19.21 10.5553 19.2975C10.7095 19.349 10.8709 19.3753 11.0335 19.3753C11.2302 19.3757 11.4252 19.3371 11.607 19.2618C11.7888 19.1865 11.9539 19.076 12.0928 18.9366L15.3103 15.721C15.4504 15.5814 15.5613 15.4154 15.6367 15.2325C15.712 15.0497 15.7502 14.8537 15.7491 14.656V9.18752L16.1963 8.74033C18.6975 6.23908 18.8053 3.22502 18.735 2.04471ZM4.72033 5.12721H8.68876L4.98283 8.83221L1.49908 8.34658L4.72033 5.12721ZM11.6963 4.24127C12.4169 3.51615 13.2841 2.95315 14.2397 2.58988C15.1953 2.22661 16.2174 2.07143 17.2378 2.13471C17.3035 3.15563 17.15 4.17879 16.7874 5.13542C16.4249 6.09206 15.8618 6.96002 15.136 7.68096L9.74908 13.066L6.31033 9.62721L11.6963 4.24127ZM14.2491 14.656L11.0306 17.8772L10.5441 14.3925L14.2491 10.6875V14.656ZM7.29658 15.5466C6.8747 16.471 5.46376 18.6272 1.49908 18.6272C1.30016 18.6272 1.1094 18.5482 0.968746 18.4075C0.828094 18.2669 0.749076 18.0761 0.749076 17.8772C0.749076 13.9125 2.90533 12.5016 3.8297 12.0788C3.91933 12.0379 4.01613 12.0151 4.11458 12.0116C4.21302 12.0081 4.31119 12.0241 4.40346 12.0586C4.49574 12.0931 4.58033 12.1454 4.65239 12.2125C4.72445 12.2797 4.78258 12.3604 4.82345 12.45C4.86433 12.5396 4.88715 12.6364 4.89061 12.7349C4.89407 12.8333 4.87811 12.9315 4.84364 13.0238C4.80917 13.1161 4.75685 13.2006 4.68969 13.2727C4.62253 13.3448 4.54183 13.4029 4.4522 13.4438C3.84939 13.7185 2.51908 14.6025 2.2847 17.0916C4.77376 16.8572 5.6597 15.5269 5.93251 14.9241C5.97339 14.8345 6.03152 14.7538 6.10358 14.6866C6.17564 14.6194 6.26022 14.5671 6.3525 14.5326C6.44478 14.4982 6.54294 14.4822 6.64139 14.4857C6.73984 14.4891 6.83664 14.512 6.92626 14.5528C7.01589 14.5937 7.09659 14.6518 7.16375 14.7239C7.23092 14.796 7.28323 14.8805 7.3177 14.9728C7.35217 15.0651 7.36814 15.1633 7.36467 15.2617C7.36121 15.3602 7.33839 15.457 7.29751 15.5466H7.29658Z"  />
</svg>