<svg width="20" height="20" viewBox="0 0 20 20" fill="white" xmlns="http://www.w3.org/2000/svg">
  <path d="M19.01 4.46825C18.9645 4.35581 18.8924 4.25607 18.7999 4.17761C18.7074 4.09914 18.5973 4.04428 18.4789 4.01773C18.3606 3.99118 18.2375 3.99374 18.1204 4.02518C18.0032 4.05662 17.8954 4.11601 17.8063 4.19825L14.0282 7.68482L12.4128 7.33794L12.066 5.72263L15.5525 1.9445C15.6348 1.85534 15.6942 1.74756 15.7256 1.6304C15.757 1.51325 15.7596 1.39022 15.7331 1.27186C15.7065 1.1535 15.6516 1.04334 15.5732 0.950841C15.4947 0.858338 15.395 0.786248 15.2825 0.740753C14.2578 0.326222 13.1469 0.169707 12.0475 0.284958C10.9481 0.40021 9.89386 0.783702 8.97736 1.40174C8.06086 2.01978 7.31017 2.85344 6.79125 3.82949C6.27233 4.80553 6.00106 5.89409 6.00128 6.9995C6.00007 7.93295 6.19156 8.8566 6.56378 9.71263L0.919093 14.5933C0.90503 14.6045 0.891905 14.6176 0.87878 14.6298C0.316107 15.1925 0 15.9556 0 16.7514C0 17.1454 0.0776061 17.5355 0.228387 17.8996C0.379169 18.2636 0.600172 18.5943 0.87878 18.8729C1.15739 19.1515 1.48814 19.3726 1.85216 19.5233C2.21618 19.6741 2.60633 19.7517 3.00034 19.7517C3.79608 19.7517 4.55923 19.4356 5.12191 18.8729C5.13409 18.8608 5.14722 18.8467 5.15847 18.8336L10.0382 13.187C11.0661 13.6382 12.1903 13.8259 13.309 13.7332C14.4277 13.6404 15.5057 13.2701 16.4452 12.6558C17.3848 12.0415 18.1563 11.2025 18.6899 10.2149C19.2235 9.22721 19.5024 8.12208 19.5013 6.9995C19.5027 6.13193 19.3359 5.2723 19.01 4.46825ZM12.7513 12.2495C11.8635 12.2483 10.9905 12.0225 10.2135 11.5933C10.0629 11.5101 9.88837 11.4812 9.71906 11.5114C9.54974 11.5416 9.39596 11.6291 9.28347 11.7592L4.04284 17.8286C3.75925 18.098 3.38162 18.246 2.99048 18.241C2.59934 18.236 2.22563 18.0784 1.94903 17.8018C1.67242 17.5252 1.51482 17.1514 1.50981 16.7603C1.5048 16.3692 1.65279 15.9915 1.92222 15.7079L7.9869 10.4683C8.11723 10.3557 8.20485 10.2018 8.23507 10.0322C8.26529 9.86271 8.23625 9.68796 8.15284 9.53732C7.67475 8.6726 7.45038 7.69053 7.50553 6.70399C7.56068 5.71744 7.89312 4.76649 8.46461 3.96046C9.03612 3.15442 9.82348 2.52603 10.7362 2.14752C11.6489 1.76901 12.6499 1.65574 13.6241 1.82075L10.6991 4.99044C10.6177 5.07873 10.5587 5.18527 10.5271 5.3011C10.4954 5.41692 10.492 5.53866 10.5172 5.65607L11.0478 8.1245C11.0782 8.26568 11.1487 8.3951 11.2508 8.49721C11.3529 8.59932 11.4823 8.66978 11.6235 8.70013L14.0938 9.23075C14.2112 9.25594 14.3329 9.25256 14.4488 9.22091C14.5646 9.18926 14.6711 9.13026 14.7594 9.04888L17.9291 6.12388C18.0555 6.8767 18.0163 7.64801 17.8144 8.38417C17.6124 9.12033 17.2526 9.80366 16.7598 10.3866C16.267 10.9696 15.6532 11.4383 14.9609 11.76C14.2687 12.0817 13.5146 12.2487 12.7513 12.2495Z"  />
</svg>